<?xml version="1.0" encoding="UTF-8"?>
<svg id="Layer_1" data-name="Layer 1" xmlns="http://www.w3.org/2000/svg" version="1.1" viewBox="0 0 1800 1800">
  <defs>
    <style>
      .cls-1 {
        fill: #000;
        stroke-width: 0px;
      }
    </style>
  </defs>
  <path class="cls-1" d="M1567.08,352.16l-119.06-119.07c-21.32-21.34-49.73-33.09-80.01-33.09s-59.09,11.88-80.55,33.44l-128.09,128.11c-.08.08-.16.12-.24.2l-828.2,828.22c-2.4,2.4-4.21,5.32-5.29,8.54l-124.54,372.68c-2.63,7.86-.58,16.53,5.27,22.4,4.17,4.17,9.77,6.41,15.48,6.41,2.31,0,4.65-.36,6.92-1.13l372.81-124.46c3.22-1.08,6.15-2.88,8.54-5.28l828.2-828.2s.09-.1.13-.16l128.21-128.16c44.28-44.42,44.47-116.4.39-160.47ZM380.27,1202.5l679.5-679.51,217.33,217.31-679.5,679.5-217.32-217.3ZM1090.71,492.06l83.89-83.9,6.9,6.89,210.42,210.46-83.87,83.86-217.34-217.31ZM357.41,1241.51l201.16,201.15-205.29,68.53-64.47-64.42,68.6-205.27ZM1535.72,481.7l-112.86,112.81-217.3-217.27,112.87-112.89c13.22-13.28,30.84-20.58,49.58-20.58s36.02,7.2,49.08,20.27l119.06,119.06c27.03,27.03,26.83,71.28-.43,98.61Z"/>
</svg>