<?xml version="1.0" encoding="UTF-8"?>
<svg id="Layer_1" data-name="Layer 1" xmlns="http://www.w3.org/2000/svg" version="1.1" viewBox="0 0 100 100">
  <defs>
    <style>
      .cls-1 {
        fill: #000;
        stroke-width: 0px;
      }
    </style>
  </defs>
  <path class="cls-1" d="M39.36,74.77c.67.82,1.66,1.28,2.72,1.28.06,0,.13,0,.18,0,1.11-.06,2.14-.65,2.75-1.57l29.34-44.24c1.07-1.62.63-3.81-.99-4.88-.58-.38-1.25-.59-1.94-.59-1.18,0-2.28.59-2.94,1.58l-26.71,40.28-11.88-14.42c-.67-.82-1.66-1.28-2.72-1.28-.81,0-1.61.29-2.24.8-.73.6-1.18,1.44-1.27,2.38-.09.94.19,1.85.79,2.58l14.9,18.09Z"/>
  <path class="cls-1" d="M83.34,5.06H15.94c-6.23,0-11.3,5.07-11.3,11.3v67.4c0,6.23,5.07,11.3,11.3,11.3h67.4c6.23,0,11.3-5.07,11.3-11.3V16.37c0-6.23-5.07-11.3-11.3-11.3ZM11.69,16.37c0-2.35,1.91-4.25,4.25-4.25h67.4c2.35,0,4.25,1.91,4.25,4.25v67.4c0,2.35-1.91,4.25-4.25,4.25H15.94c-2.35,0-4.25-1.91-4.25-4.25V16.37Z"/>
</svg>