<?xml version="1.0" encoding="UTF-8"?>
<svg id="Layer_1" data-name="Layer 1" xmlns="http://www.w3.org/2000/svg" version="1.1" viewBox="0 0 100 100">
  <defs>
    <style>
      .cls-1 {
        fill: #000;
        stroke-width: 0px;
      }
    </style>
  </defs>
  <path class="cls-1" d="M80.4,68.03h0c-.56-2.74-2.16-5.32-4.88-7.88-3.43-3.24-3.42-9.13-3.41-9.19v-9.11c0-10.19-6.55-19.15-16.11-22.29-.4-3.71-3.55-6.6-7.37-6.6s-6.97,2.9-7.37,6.6c-9.55,3.15-16.11,12.1-16.11,22.29v9.11s.03,5.94-3.41,9.18c-2.72,2.56-4.3,5.14-4.88,7.88-.16.78-.26,1.57-.31,2.39v.13c0,2.57,2.09,4.68,4.68,4.68h16.38c.94,5.24,5.52,9.22,11.02,9.22s10.09-3.99,11.02-9.22h16.38c2.57,0,4.68-2.09,4.68-4.68v-.13c-.05-.81-.16-1.61-.31-2.39h-.03ZM48.65,80.47c-3.3,0-6.1-2.22-6.97-5.27h13.94c-.86,3.03-3.65,5.27-6.97,5.27ZM76.04,71.26H21.25c-.38,0-.69-.3-.71-.66.04-.6.12-1.2.23-1.77.4-1.95,1.57-3.78,3.71-5.79,4.59-4.32,4.67-11.27,4.65-12.1v-9.07c0-8.9,6.02-16.68,14.62-18.9.96-.25,1.6-1.17,1.47-2.16-.03-.17-.03-.31-.03-.43,0-1.9,1.55-3.44,3.45-3.44s3.45,1.55,3.45,3.44c0,.12,0,.26-.03.43-.12.99.51,1.91,1.47,2.16,8.61,2.22,14.62,9.98,14.62,18.9v9.06c0,.31-.06,7.67,4.65,12.13,2.13,2,3.3,3.85,3.7,5.78.12.57.2,1.16.23,1.77-.03.38-.34.66-.72.66h.01Z"/>
</svg>