<?xml version="1.0" encoding="UTF-8"?>
<svg id="Layer_1" data-name="Layer 1" xmlns="http://www.w3.org/2000/svg" version="1.1" viewBox="0 0 1700.79 1700.79">
  <defs>
    <style>
      .cls-1 {
        fill: #000;
        stroke-width: 0px;
      }
    </style>
  </defs>
  <g id="Layer_1-2" data-name="Layer_1">
    <path class="cls-1" d="M850.39,467.55H315.16c-9.39,0-2.2-.03-4.52-.02-13.79.06-25.51.12-40.1-4.97-27.71-9.66-45.79-30.52-54.25-54.8-3.71-10.65-5.57-21.9-5.57-33.08s1.86-22.43,5.57-33.08c8.46-24.28,26.55-45.14,54.25-54.8,14.59-5.09,26.32-5.03,40.1-4.97,2.32.01-4.87-.02,4.52-.02h1070.47c9.39,0,2.2.03,4.52.02,13.79-.06,25.51-.12,40.1,4.97,27.71,9.66,45.79,30.52,54.25,54.8,3.71,10.65,5.57,21.9,5.57,33.08s-1.86,22.43-5.57,33.08c-8.46,24.28-26.55,45.14-54.25,54.8-14.59,5.09-26.32,5.03-40.1,4.97-2.32-.01,4.87.02-4.52.02h-535.24,0ZM315.16,1233.24h1070.47c9.39,0,2.2.03,4.52.02,13.79-.06,25.51-.12,40.1,4.97,27.71,9.66,45.79,30.52,54.25,54.8,3.71,10.65,5.57,21.9,5.57,33.08s-1.86,22.43-5.57,33.08c-8.46,24.28-26.55,45.14-54.25,54.8-14.59,5.09-26.32,5.03-40.1,4.97-2.32-.01,4.87.02-4.52.02H315.16c-9.39,0-2.2-.03-4.52-.02-13.79.06-25.51.12-40.1-4.97-27.71-9.66-45.79-30.52-54.25-54.8-3.71-10.65-5.57-21.9-5.57-33.08s1.86-22.43,5.57-33.08c8.46-24.28,26.55-45.14,54.25-54.8,14.59-5.09,26.32-5.03,40.1-4.97,2.32.01-4.87-.02,4.52-.02h0ZM850.39,943.27H315.16c-9.39,0-2.2-.03-4.52-.02-13.79.06-25.51.12-40.1-4.97-27.71-9.66-45.79-30.52-54.25-54.8-3.71-10.65-5.57-21.9-5.57-33.08s1.86-22.43,5.57-33.08c8.46-24.28,26.55-45.14,54.25-54.8,14.59-5.09,26.32-5.03,40.1-4.97,2.32.01-4.87-.02,4.52-.02h1070.47c9.39,0,2.2.03,4.52.02,13.79-.06,25.51-.12,40.1,4.97,27.71,9.66,45.79,30.52,54.25,54.8,3.71,10.65,5.57,21.9,5.57,33.08s-1.86,22.43-5.57,33.08c-8.46,24.28-26.55,45.14-54.25,54.8-14.59,5.09-26.32,5.03-40.1,4.97-2.32-.01,4.87.02-4.52.02h-535.24,0Z"/>
  </g>
</svg>