<?xml version="1.0" encoding="UTF-8"?>
<svg id="Layer_1" data-name="Layer 1" xmlns="http://www.w3.org/2000/svg" version="1.1" viewBox="0 0 100 100">
  <defs>
    <style>
      .cls-1 {
        fill: #000;
        stroke-width: 0px;
      }
    </style>
  </defs>
  <path class="cls-1" d="M40.81,41.04c-1.84,0-3.33-1.49-3.33-3.33s1.49-3.33,3.33-3.33h27.03c1.84,0,3.33,1.49,3.33,3.33s-1.49,3.33-3.33,3.33h-27.03Z"/>
  <path class="cls-1" d="M40.81,52.68c-1.84,0-3.33-1.49-3.33-3.33s1.49-3.33,3.33-3.33h27.03c1.84,0,3.33,1.49,3.33,3.33s-1.49,3.33-3.33,3.33h-27.03Z"/>
  <path class="cls-1" d="M40.81,64.32c-1.84,0-3.33-1.49-3.33-3.33s1.49-3.33,3.33-3.33h27.03c1.84,0,3.33,1.49,3.33,3.33s-1.49,3.33-3.33,3.33h-27.03Z"/>
  <path class="cls-1" d="M29.88,41.04c-1.84,0-3.33-1.49-3.33-3.33s1.49-3.33,3.33-3.33h.12c1.84,0,3.33,1.49,3.33,3.33s-1.49,3.33-3.33,3.33h-.12Z"/>
  <path class="cls-1" d="M29.88,52.68c-1.84,0-3.33-1.49-3.33-3.33s1.49-3.33,3.33-3.33h.12c1.84,0,3.33,1.49,3.33,3.33s-1.49,3.33-3.33,3.33h-.12Z"/>
  <path class="cls-1" d="M29.88,64.32c-1.84,0-3.33-1.49-3.33-3.33s1.49-3.33,3.33-3.33h.12c1.84,0,3.33,1.49,3.33,3.33s-1.49,3.33-3.33,3.33h-.12Z"/>
</svg>