<svg width="800" height="800" viewBox="0 0 800 800" fill="none" xmlns="http://www.w3.org/2000/svg">
<path d="M400 100C340.666 100 282.664 117.595 233.329 150.559C183.994 183.524 145.543 230.377 122.836 285.195C100.13 340.013 94.189 400.333 105.765 458.527C117.34 516.721 145.912 570.176 187.868 612.132C229.824 654.088 283.279 682.66 341.473 694.235C399.667 705.811 459.987 699.87 514.805 677.164C569.623 654.457 616.476 616.006 649.441 566.671C682.405 517.336 700 459.334 700 400C699.919 320.46 668.285 244.201 612.042 187.958C555.799 131.715 479.54 100.081 400 100ZM400 146.154C447.727 146.012 494.522 159.36 534.991 184.66C575.46 209.96 607.956 246.181 628.732 289.148C649.508 332.116 657.719 380.08 652.418 427.511C647.116 474.943 628.519 519.91 598.769 557.231C573.593 529.534 542.906 507.404 508.676 492.26C474.447 477.117 437.43 469.295 400 469.295C362.57 469.295 325.554 477.117 291.324 492.26C257.094 507.404 226.407 529.534 201.231 557.231C171.481 519.91 152.884 474.943 147.582 427.511C142.281 380.08 150.492 332.116 171.268 289.148C192.044 246.181 224.54 209.96 265.009 184.66C305.478 159.36 352.274 146.012 400 146.154ZM233.231 590.769C254.079 567.079 279.736 548.103 308.492 535.104C337.247 522.105 368.443 515.382 400 515.382C431.557 515.382 462.753 522.105 491.509 535.104C520.264 548.103 545.921 567.079 566.769 590.769C520.724 631.415 461.419 653.846 400 653.846C338.581 653.846 279.276 631.415 233.231 590.769ZM400 453.846C422.821 453.846 445.129 447.079 464.104 434.4C483.079 421.722 497.868 403.701 506.602 382.617C515.335 361.533 517.62 338.334 513.168 315.951C508.715 293.569 497.726 273.009 481.589 256.872C465.452 240.735 444.893 229.746 422.51 225.294C400.128 220.842 376.928 223.127 355.844 231.86C334.761 240.593 316.74 255.382 304.061 274.357C291.383 293.332 284.615 315.641 284.615 338.461C284.615 369.063 296.772 398.412 318.411 420.051C340.05 441.69 369.398 453.846 400 453.846ZM400 269.231C413.693 269.231 427.078 273.291 438.463 280.898C449.848 288.505 458.721 299.318 463.961 311.968C469.201 324.618 470.572 338.538 467.901 351.968C465.229 365.397 458.636 377.733 448.954 387.415C439.272 397.097 426.936 403.691 413.506 406.362C400.077 409.033 386.157 407.662 373.507 402.422C360.856 397.182 350.044 388.309 342.437 376.924C334.83 365.539 330.769 352.154 330.769 338.461C330.769 320.1 338.063 302.491 351.047 289.508C364.03 276.525 381.639 269.231 400 269.231Z" fill="black"/>
</svg>
